<svg  viewBox="0 0 48 48" fill="none" xmlns="http://www.w3.org/2000/svg">
<path d="M24 48V41.8605C24 41.8605 18 41.8605 18 37.3953C18 32.9302 24 32.9302 24 32.9302C24 32.9302 18 32.9302 18 28.4651C18 24 24 24 24 24C24 24 18 24 18 19.5349C18 15.0698 24 15.0698 24 15.0698C24 15.0698 18 15.0698 18 10.6046C18 6.13953 24 6.13953 24 6.13953V-2.38419e-06" stroke="currentColor" stroke-width="2"/>
<line x1="13" y1="6" x2="13" y2="16" stroke="currentColor" stroke-width="2"/>
<line x1="13" y1="19" x2="13" y2="29" stroke="currentColor" stroke-width="2"/>
<line x1="13" y1="32" x2="13" y2="42" stroke="currentColor" stroke-width="2"/>
</svg>
